<?xml version="1.0" encoding="UTF-8" standalone="no"?>
<!DOCTYPE svg PUBLIC "-//W3C//DTD SVG 1.1//EN" "http://www.w3.org/Graphics/SVG/1.1/DTD/svg11.dtd">
<svg width="100%" height="100%" viewBox="0 0 168 417" version="1.1" xmlns="http://www.w3.org/2000/svg" xmlns:xlink="http://www.w3.org/1999/xlink" xml:space="preserve" xmlns:serif="http://www.serif.com/" style="fill-rule:evenodd;clip-rule:evenodd;stroke-linejoin:round;stroke-miterlimit:2;">
    <rect id="Artboard1" x="0" y="0" width="167.874" height="416.667" style="fill:none;"/>
    <g id="Artboard11" serif:id="Artboard1">
        <g transform="matrix(4.92764,0,0,4.92764,-457.797,-752.405)">
            <path d="M126.972,237.248L126.972,236.022L126.237,236.022C122.07,236.022 119.987,232.714 119.987,226.096L119.987,175.362L119.006,175.362C117.699,176.832 114.881,178.017 110.551,178.916C106.221,179.814 102.136,180.264 98.296,180.264L92.904,180.264L92.904,181.489L93.639,181.489C97.806,181.489 99.889,184.798 99.889,191.415L99.889,226.096C99.889,232.714 97.806,236.022 93.639,236.022L92.904,236.022L92.904,237.248L98.296,237.248C99.767,237.248 101.748,237.187 104.24,237.064C106.731,236.942 108.631,236.88 109.938,236.88C111.245,236.88 113.145,236.942 115.636,237.064C118.128,237.187 120.109,237.248 121.58,237.248L126.972,237.248ZM109.325,172.298C112.185,172.298 114.615,171.4 116.617,169.602C118.618,167.805 119.619,165.436 119.619,162.495C119.619,159.553 118.618,157.184 116.617,155.387C114.615,153.589 112.185,152.691 109.325,152.691C106.466,152.691 104.035,153.589 102.034,155.387C100.032,157.184 99.031,159.553 99.031,162.495C99.031,165.436 100.032,167.805 102.034,169.602C104.035,171.4 106.466,172.298 109.325,172.298Z" style="fill-rule:nonzero;"/>
        </g>
    </g>
</svg>
